<mxfile host="app.diagrams.net" modified="2021-08-10T13:49:52.842Z" agent="5.0 (Windows NT 10.0; WOW64) AppleWebKit/537.36 (KHTML, like Gecko) Chrome/69.0.3947.100 Safari/537.36" etag="faTwe9MUo1oixSEU-Upk" version="14.9.5" type="github">
  <diagram id="25QVtnCMKmwzaPlWQuQu" name="Page-1">
    <mxGraphModel dx="1909" dy="720" grid="1" gridSize="10" guides="1" tooltips="1" connect="1" arrows="1" fold="1" page="1" pageScale="1" pageWidth="827" pageHeight="1169" math="0" shadow="0">
      <root>
        <mxCell id="0" />
        <mxCell id="1" parent="0" />
        <mxCell id="KkYkvKr56rB3np9htNHk-1" value="" style="edgeStyle=orthogonalEdgeStyle;rounded=0;orthogonalLoop=1;jettySize=auto;html=1;" parent="1" source="KkYkvKr56rB3np9htNHk-2" target="KkYkvKr56rB3np9htNHk-4" edge="1">
          <mxGeometry relative="1" as="geometry" />
        </mxCell>
        <mxCell id="KkYkvKr56rB3np9htNHk-2" value="" style="shape=cube;whiteSpace=wrap;html=1;boundedLbl=1;backgroundOutline=1;darkOpacity=0.05;darkOpacity2=0.1;direction=east;" parent="1" vertex="1">
          <mxGeometry x="90" y="350" width="30" height="190" as="geometry" />
        </mxCell>
        <mxCell id="KkYkvKr56rB3np9htNHk-3" value="" style="edgeStyle=orthogonalEdgeStyle;rounded=0;orthogonalLoop=1;jettySize=auto;html=1;" parent="1" source="KkYkvKr56rB3np9htNHk-4" target="KkYkvKr56rB3np9htNHk-7" edge="1">
          <mxGeometry relative="1" as="geometry" />
        </mxCell>
        <mxCell id="KkYkvKr56rB3np9htNHk-4" value="" style="shape=cube;whiteSpace=wrap;html=1;boundedLbl=1;backgroundOutline=1;darkOpacity=0.05;darkOpacity2=0.1;direction=east;" parent="1" vertex="1">
          <mxGeometry x="144" y="364.99" width="40" height="160" as="geometry" />
        </mxCell>
        <mxCell id="KkYkvKr56rB3np9htNHk-5" value="" style="edgeStyle=orthogonalEdgeStyle;rounded=0;orthogonalLoop=1;jettySize=auto;html=1;" parent="1" source="KkYkvKr56rB3np9htNHk-7" target="KkYkvKr56rB3np9htNHk-10" edge="1">
          <mxGeometry relative="1" as="geometry" />
        </mxCell>
        <mxCell id="KkYkvKr56rB3np9htNHk-6" style="edgeStyle=orthogonalEdgeStyle;rounded=0;orthogonalLoop=1;jettySize=auto;html=1;exitX=0;exitY=0;exitDx=10;exitDy=0;exitPerimeter=0;entryX=0.25;entryY=1;entryDx=0;entryDy=0;" parent="1" source="KkYkvKr56rB3np9htNHk-7" target="KkYkvKr56rB3np9htNHk-34" edge="1">
          <mxGeometry relative="1" as="geometry" />
        </mxCell>
        <mxCell id="KkYkvKr56rB3np9htNHk-7" value="" style="shape=cube;whiteSpace=wrap;html=1;boundedLbl=1;backgroundOutline=1;darkOpacity=0.05;darkOpacity2=0.1;direction=east;fillColor=#b1ddf0;strokeColor=#10739e;" parent="1" vertex="1">
          <mxGeometry x="210" y="377.5" width="40" height="135" as="geometry" />
        </mxCell>
        <mxCell id="KkYkvKr56rB3np9htNHk-8" value="" style="edgeStyle=orthogonalEdgeStyle;rounded=0;orthogonalLoop=1;jettySize=auto;html=1;" parent="1" source="KkYkvKr56rB3np9htNHk-10" target="KkYkvKr56rB3np9htNHk-12" edge="1">
          <mxGeometry relative="1" as="geometry" />
        </mxCell>
        <mxCell id="KkYkvKr56rB3np9htNHk-9" style="edgeStyle=orthogonalEdgeStyle;rounded=0;orthogonalLoop=1;jettySize=auto;html=1;exitX=0;exitY=0;exitDx=15;exitDy=0;exitPerimeter=0;" parent="1" source="KkYkvKr56rB3np9htNHk-10" edge="1">
          <mxGeometry relative="1" as="geometry">
            <mxPoint x="295" y="370" as="targetPoint" />
          </mxGeometry>
        </mxCell>
        <mxCell id="KkYkvKr56rB3np9htNHk-10" value="" style="shape=cube;whiteSpace=wrap;html=1;boundedLbl=1;backgroundOutline=1;darkOpacity=0.05;darkOpacity2=0.1;direction=east;fillColor=#b1ddf0;strokeColor=#10739e;" parent="1" vertex="1">
          <mxGeometry x="280" y="389.38" width="50" height="111.25" as="geometry" />
        </mxCell>
        <mxCell id="KkYkvKr56rB3np9htNHk-11" style="edgeStyle=orthogonalEdgeStyle;rounded=0;orthogonalLoop=1;jettySize=auto;html=1;exitX=0;exitY=0;exitDx=15;exitDy=0;exitPerimeter=0;entryX=0.25;entryY=1;entryDx=0;entryDy=0;" parent="1" source="KkYkvKr56rB3np9htNHk-12" target="KkYkvKr56rB3np9htNHk-15" edge="1">
          <mxGeometry relative="1" as="geometry" />
        </mxCell>
        <mxCell id="KkYkvKr56rB3np9htNHk-12" value="" style="shape=cube;whiteSpace=wrap;html=1;boundedLbl=1;backgroundOutline=1;darkOpacity=0.05;darkOpacity2=0.1;direction=east;fillColor=#b1ddf0;strokeColor=#10739e;" parent="1" vertex="1">
          <mxGeometry x="350" y="399.7" width="50" height="90.62" as="geometry" />
        </mxCell>
        <mxCell id="KkYkvKr56rB3np9htNHk-13" style="edgeStyle=orthogonalEdgeStyle;rounded=0;orthogonalLoop=1;jettySize=auto;html=1;exitX=1;exitY=0.5;exitDx=0;exitDy=0;entryX=0;entryY=0;entryDx=55;entryDy=0;entryPerimeter=0;fillColor=#ffe6cc;strokeColor=#d79b00;strokeWidth=2;" parent="1" source="KkYkvKr56rB3np9htNHk-15" target="KkYkvKr56rB3np9htNHk-17" edge="1">
          <mxGeometry relative="1" as="geometry" />
        </mxCell>
        <mxCell id="KkYkvKr56rB3np9htNHk-14" style="edgeStyle=orthogonalEdgeStyle;rounded=0;orthogonalLoop=1;jettySize=auto;html=1;exitX=0.5;exitY=0;exitDx=0;exitDy=0;entryX=0.5;entryY=0;entryDx=0;entryDy=0;fillColor=#dae8fc;strokeColor=#6c8ebf;strokeWidth=2;" parent="1" source="KkYkvKr56rB3np9htNHk-15" target="KkYkvKr56rB3np9htNHk-28" edge="1">
          <mxGeometry relative="1" as="geometry">
            <Array as="points">
              <mxPoint x="376" y="320" />
              <mxPoint x="750" y="320" />
            </Array>
          </mxGeometry>
        </mxCell>
        <mxCell id="KkYkvKr56rB3np9htNHk-15" value="CCASPP" style="rounded=0;whiteSpace=wrap;html=1;" parent="1" vertex="1">
          <mxGeometry x="350" y="329.99" width="52" height="35" as="geometry" />
        </mxCell>
        <mxCell id="KkYkvKr56rB3np9htNHk-16" style="edgeStyle=orthogonalEdgeStyle;rounded=0;orthogonalLoop=1;jettySize=auto;html=1;exitX=1;exitY=0.5;exitDx=0;exitDy=0;entryX=0.438;entryY=1;entryDx=0;entryDy=0;entryPerimeter=0;fillColor=#ffe6cc;strokeColor=#d79b00;strokeWidth=2;" parent="1" source="KkYkvKr56rB3np9htNHk-38" target="KkYkvKr56rB3np9htNHk-17" edge="1">
          <mxGeometry relative="1" as="geometry" />
        </mxCell>
        <mxCell id="KkYkvKr56rB3np9htNHk-17" value="SASM" style="shape=cube;whiteSpace=wrap;html=1;boundedLbl=1;backgroundOutline=1;darkOpacity=0.05;darkOpacity2=0.1;fillColor=#ffe6cc;strokeColor=#d79b00;" parent="1" vertex="1">
          <mxGeometry x="470" y="410.32" width="130" height="80" as="geometry" />
        </mxCell>
        <mxCell id="KkYkvKr56rB3np9htNHk-18" style="edgeStyle=orthogonalEdgeStyle;rounded=0;orthogonalLoop=1;jettySize=auto;html=1;exitX=0;exitY=0;exitDx=30;exitDy=60;exitPerimeter=0;" parent="1" source="KkYkvKr56rB3np9htNHk-19" edge="1">
          <mxGeometry relative="1" as="geometry">
            <mxPoint x="790" y="530" as="targetPoint" />
          </mxGeometry>
        </mxCell>
        <mxCell id="KkYkvKr56rB3np9htNHk-19" value="" style="shape=cube;whiteSpace=wrap;html=1;boundedLbl=1;backgroundOutline=1;darkOpacity=0.05;darkOpacity2=0.1;direction=east;fillColor=#FFE6CC;" parent="1" vertex="1">
          <mxGeometry x="680" y="470" width="30" height="100" as="geometry" />
        </mxCell>
        <mxCell id="KkYkvKr56rB3np9htNHk-20" value="" style="shape=cube;whiteSpace=wrap;html=1;boundedLbl=1;backgroundOutline=1;darkOpacity=0.05;darkOpacity2=0.1;direction=east;" parent="1" vertex="1">
          <mxGeometry x="668" y="470" width="30" height="100" as="geometry" />
        </mxCell>
        <mxCell id="KkYkvKr56rB3np9htNHk-21" value="" style="shape=cube;whiteSpace=wrap;html=1;boundedLbl=1;backgroundOutline=1;darkOpacity=0.05;darkOpacity2=0.1;direction=east;fillColor=#FFE6CC;" parent="1" vertex="1">
          <mxGeometry x="680" y="340" width="30" height="100" as="geometry" />
        </mxCell>
        <mxCell id="KkYkvKr56rB3np9htNHk-22" value="" style="shape=cube;whiteSpace=wrap;html=1;boundedLbl=1;backgroundOutline=1;darkOpacity=0.05;darkOpacity2=0.1;direction=east;" parent="1" vertex="1">
          <mxGeometry x="668" y="340" width="30" height="100" as="geometry" />
        </mxCell>
        <mxCell id="KkYkvKr56rB3np9htNHk-23" value="" style="endArrow=classic;html=1;entryX=0;entryY=0.56;entryDx=0;entryDy=0;entryPerimeter=0;fillColor=#ffe6cc;strokeColor=#d79b00;strokeWidth=2;" parent="1" target="KkYkvKr56rB3np9htNHk-22" edge="1">
          <mxGeometry width="50" height="50" relative="1" as="geometry">
            <mxPoint x="600" y="460" as="sourcePoint" />
            <mxPoint x="651.5" y="399.7" as="targetPoint" />
          </mxGeometry>
        </mxCell>
        <mxCell id="KkYkvKr56rB3np9htNHk-24" value="" style="endArrow=classic;html=1;exitX=0;exitY=0;exitDx=130;exitDy=50;exitPerimeter=0;entryX=0.067;entryY=0.55;entryDx=0;entryDy=0;entryPerimeter=0;fillColor=#ffe6cc;strokeColor=#d79b00;strokeWidth=2;" parent="1" source="KkYkvKr56rB3np9htNHk-17" target="KkYkvKr56rB3np9htNHk-20" edge="1">
          <mxGeometry width="50" height="50" relative="1" as="geometry">
            <mxPoint x="490" y="470" as="sourcePoint" />
            <mxPoint x="540" y="420" as="targetPoint" />
          </mxGeometry>
        </mxCell>
        <mxCell id="KkYkvKr56rB3np9htNHk-25" style="edgeStyle=orthogonalEdgeStyle;rounded=0;orthogonalLoop=1;jettySize=auto;html=1;exitX=1;exitY=0.5;exitDx=0;exitDy=0;entryX=0.5;entryY=0;entryDx=0;entryDy=0;" parent="1" source="KkYkvKr56rB3np9htNHk-26" target="KkYkvKr56rB3np9htNHk-45" edge="1">
          <mxGeometry relative="1" as="geometry">
            <Array as="points">
              <mxPoint x="795" y="400" />
            </Array>
          </mxGeometry>
        </mxCell>
        <mxCell id="KkYkvKr56rB3np9htNHk-26" value="+" style="ellipse;whiteSpace=wrap;html=1;aspect=fixed;" parent="1" vertex="1">
          <mxGeometry x="765" y="389.38" width="20.62" height="20.62" as="geometry" />
        </mxCell>
        <mxCell id="KkYkvKr56rB3np9htNHk-27" style="edgeStyle=orthogonalEdgeStyle;rounded=0;orthogonalLoop=1;jettySize=auto;html=1;exitX=1;exitY=0.5;exitDx=0;exitDy=0;entryX=0.25;entryY=0;entryDx=0;entryDy=0;" parent="1" source="KkYkvKr56rB3np9htNHk-28" target="KkYkvKr56rB3np9htNHk-45" edge="1">
          <mxGeometry relative="1" as="geometry" />
        </mxCell>
        <mxCell id="KkYkvKr56rB3np9htNHk-28" value="+" style="ellipse;whiteSpace=wrap;html=1;aspect=fixed;" parent="1" vertex="1">
          <mxGeometry x="739.38" y="410.32" width="20.62" height="20.62" as="geometry" />
        </mxCell>
        <mxCell id="KkYkvKr56rB3np9htNHk-29" style="edgeStyle=orthogonalEdgeStyle;rounded=0;orthogonalLoop=1;jettySize=auto;html=1;exitX=1;exitY=0.5;exitDx=0;exitDy=0;entryX=0.5;entryY=1;entryDx=0;entryDy=0;" parent="1" source="KkYkvKr56rB3np9htNHk-30" target="KkYkvKr56rB3np9htNHk-47" edge="1">
          <mxGeometry relative="1" as="geometry">
            <Array as="points">
              <mxPoint x="850" y="527" />
            </Array>
          </mxGeometry>
        </mxCell>
        <mxCell id="KkYkvKr56rB3np9htNHk-30" value="+" style="ellipse;whiteSpace=wrap;html=1;aspect=fixed;" parent="1" vertex="1">
          <mxGeometry x="790.62" y="516.5" width="20.62" height="20.62" as="geometry" />
        </mxCell>
        <mxCell id="KkYkvKr56rB3np9htNHk-31" style="edgeStyle=orthogonalEdgeStyle;rounded=0;orthogonalLoop=1;jettySize=auto;html=1;exitX=0.5;exitY=0;exitDx=0;exitDy=0;entryX=0.5;entryY=0;entryDx=0;entryDy=0;fillColor=#dae8fc;strokeColor=#6c8ebf;strokeWidth=2;" parent="1" source="KkYkvKr56rB3np9htNHk-32" target="KkYkvKr56rB3np9htNHk-26" edge="1">
          <mxGeometry relative="1" as="geometry">
            <Array as="points">
              <mxPoint x="301" y="310" />
              <mxPoint x="775" y="310" />
            </Array>
          </mxGeometry>
        </mxCell>
        <mxCell id="KkYkvKr56rB3np9htNHk-32" value="CCASPP" style="rounded=0;whiteSpace=wrap;html=1;" parent="1" vertex="1">
          <mxGeometry x="275" y="329.99" width="52" height="35" as="geometry" />
        </mxCell>
        <mxCell id="KkYkvKr56rB3np9htNHk-33" style="edgeStyle=orthogonalEdgeStyle;rounded=0;orthogonalLoop=1;jettySize=auto;html=1;exitX=0.5;exitY=0;exitDx=0;exitDy=0;entryX=0.5;entryY=0;entryDx=0;entryDy=0;fillColor=#dae8fc;strokeColor=#6c8ebf;strokeWidth=2;" parent="1" source="KkYkvKr56rB3np9htNHk-34" target="KkYkvKr56rB3np9htNHk-40" edge="1">
          <mxGeometry relative="1" as="geometry">
            <Array as="points">
              <mxPoint x="230" y="300" />
              <mxPoint x="801" y="300" />
            </Array>
          </mxGeometry>
        </mxCell>
        <mxCell id="KkYkvKr56rB3np9htNHk-34" value="CCASPP" style="rounded=0;whiteSpace=wrap;html=1;" parent="1" vertex="1">
          <mxGeometry x="204" y="329.99" width="52" height="35" as="geometry" />
        </mxCell>
        <mxCell id="KkYkvKr56rB3np9htNHk-35" style="edgeStyle=orthogonalEdgeStyle;rounded=0;orthogonalLoop=1;jettySize=auto;html=1;exitX=1;exitY=0.5;exitDx=0;exitDy=0;entryX=0;entryY=0.5;entryDx=0;entryDy=0;" parent="1" source="KkYkvKr56rB3np9htNHk-36" target="KkYkvKr56rB3np9htNHk-38" edge="1">
          <mxGeometry relative="1" as="geometry" />
        </mxCell>
        <mxCell id="KkYkvKr56rB3np9htNHk-36" value="depth estimator" style="rounded=1;whiteSpace=wrap;html=1;fillColor=#ffcccc;strokeColor=#36393d;" parent="1" vertex="1">
          <mxGeometry x="204" y="527.12" width="100" height="42.88" as="geometry" />
        </mxCell>
        <mxCell id="KkYkvKr56rB3np9htNHk-37" style="edgeStyle=orthogonalEdgeStyle;rounded=0;orthogonalLoop=1;jettySize=auto;html=1;exitX=0.5;exitY=1;exitDx=0;exitDy=0;entryX=0.5;entryY=1;entryDx=0;entryDy=0;fillColor=#dae8fc;strokeColor=#6c8ebf;strokeWidth=2;" parent="1" source="KkYkvKr56rB3np9htNHk-38" target="KkYkvKr56rB3np9htNHk-30" edge="1">
          <mxGeometry relative="1" as="geometry" />
        </mxCell>
        <mxCell id="KkYkvKr56rB3np9htNHk-38" value="CCASPP" style="rounded=0;whiteSpace=wrap;html=1;fillColor=#bac8d3;strokeColor=#23445d;" parent="1" vertex="1">
          <mxGeometry x="350" y="531.0600000000001" width="52" height="35" as="geometry" />
        </mxCell>
        <mxCell id="KkYkvKr56rB3np9htNHk-39" style="edgeStyle=orthogonalEdgeStyle;rounded=0;orthogonalLoop=1;jettySize=auto;html=1;exitX=1;exitY=0.5;exitDx=0;exitDy=0;entryX=0.75;entryY=0;entryDx=0;entryDy=0;" parent="1" source="KkYkvKr56rB3np9htNHk-40" target="KkYkvKr56rB3np9htNHk-45" edge="1">
          <mxGeometry relative="1" as="geometry">
            <Array as="points">
              <mxPoint x="813" y="379" />
              <mxPoint x="813" y="425" />
            </Array>
          </mxGeometry>
        </mxCell>
        <mxCell id="KkYkvKr56rB3np9htNHk-40" value="+" style="ellipse;whiteSpace=wrap;html=1;aspect=fixed;" parent="1" vertex="1">
          <mxGeometry x="790.62" y="368.76" width="20.62" height="20.62" as="geometry" />
        </mxCell>
        <mxCell id="KkYkvKr56rB3np9htNHk-41" value="" style="endArrow=classic;html=1;exitX=1.033;exitY=0.82;exitDx=0;exitDy=0;exitPerimeter=0;entryX=0;entryY=0.5;entryDx=0;entryDy=0;" parent="1" source="KkYkvKr56rB3np9htNHk-21" target="KkYkvKr56rB3np9htNHk-28" edge="1">
          <mxGeometry width="50" height="50" relative="1" as="geometry">
            <mxPoint x="800" y="420" as="sourcePoint" />
            <mxPoint x="740" y="420" as="targetPoint" />
          </mxGeometry>
        </mxCell>
        <mxCell id="KkYkvKr56rB3np9htNHk-42" value="" style="endArrow=classic;html=1;exitX=0;exitY=0;exitDx=30;exitDy=60;exitPerimeter=0;entryX=0;entryY=0.5;entryDx=0;entryDy=0;" parent="1" source="KkYkvKr56rB3np9htNHk-21" target="KkYkvKr56rB3np9htNHk-26" edge="1">
          <mxGeometry width="50" height="50" relative="1" as="geometry">
            <mxPoint x="780" y="470" as="sourcePoint" />
            <mxPoint x="830" y="420" as="targetPoint" />
          </mxGeometry>
        </mxCell>
        <mxCell id="KkYkvKr56rB3np9htNHk-43" value="" style="endArrow=classic;html=1;exitX=1.067;exitY=0.39;exitDx=0;exitDy=0;exitPerimeter=0;" parent="1" source="KkYkvKr56rB3np9htNHk-21" edge="1">
          <mxGeometry width="50" height="50" relative="1" as="geometry">
            <mxPoint x="780" y="470" as="sourcePoint" />
            <mxPoint x="790" y="379" as="targetPoint" />
          </mxGeometry>
        </mxCell>
        <mxCell id="KkYkvKr56rB3np9htNHk-44" style="edgeStyle=orthogonalEdgeStyle;rounded=0;orthogonalLoop=1;jettySize=auto;html=1;exitX=1;exitY=0.5;exitDx=0;exitDy=0;entryX=0.5;entryY=0;entryDx=0;entryDy=0;" parent="1" source="KkYkvKr56rB3np9htNHk-45" target="KkYkvKr56rB3np9htNHk-47" edge="1">
          <mxGeometry relative="1" as="geometry" />
        </mxCell>
        <mxCell id="KkYkvKr56rB3np9htNHk-45" value="fusion" style="rounded=1;whiteSpace=wrap;html=1;fillColor=#b0e3e6;strokeColor=#0e8088;" parent="1" vertex="1">
          <mxGeometry x="760" y="460.63" width="70" height="40" as="geometry" />
        </mxCell>
        <mxCell id="KkYkvKr56rB3np9htNHk-46" style="edgeStyle=orthogonalEdgeStyle;rounded=0;orthogonalLoop=1;jettySize=auto;html=1;exitX=1;exitY=0.5;exitDx=0;exitDy=0;" parent="1" source="KkYkvKr56rB3np9htNHk-47" edge="1">
          <mxGeometry relative="1" as="geometry">
            <mxPoint x="890" y="506" as="targetPoint" />
          </mxGeometry>
        </mxCell>
        <mxCell id="KkYkvKr56rB3np9htNHk-47" value="x" style="ellipse;whiteSpace=wrap;html=1;aspect=fixed;" parent="1" vertex="1">
          <mxGeometry x="840" y="495.88" width="20.62" height="20.62" as="geometry" />
        </mxCell>
        <mxCell id="KkYkvKr56rB3np9htNHk-48" value="RGB" style="text;html=1;resizable=0;autosize=1;align=center;verticalAlign=middle;points=[];fillColor=none;strokeColor=none;rounded=0;" parent="1" vertex="1">
          <mxGeometry x="628" y="364.99" width="40" height="20" as="geometry" />
        </mxCell>
        <mxCell id="KkYkvKr56rB3np9htNHk-49" value="Depth" style="text;html=1;resizable=0;autosize=1;align=center;verticalAlign=middle;points=[];fillColor=none;strokeColor=none;rounded=0;" parent="1" vertex="1">
          <mxGeometry x="615" y="517.12" width="50" height="20" as="geometry" />
        </mxCell>
        <mxCell id="KkYkvKr56rB3np9htNHk-50" style="edgeStyle=orthogonalEdgeStyle;rounded=0;orthogonalLoop=1;jettySize=auto;html=1;exitX=0.5;exitY=1;exitDx=0;exitDy=0;entryX=0;entryY=0.5;entryDx=0;entryDy=0;" parent="1" source="KkYkvKr56rB3np9htNHk-52" target="KkYkvKr56rB3np9htNHk-36" edge="1">
          <mxGeometry relative="1" as="geometry" />
        </mxCell>
        <mxCell id="KkYkvKr56rB3np9htNHk-51" style="edgeStyle=orthogonalEdgeStyle;rounded=0;orthogonalLoop=1;jettySize=auto;html=1;exitX=1;exitY=0.5;exitDx=0;exitDy=0;" parent="1" source="KkYkvKr56rB3np9htNHk-52" target="KkYkvKr56rB3np9htNHk-2" edge="1">
          <mxGeometry relative="1" as="geometry" />
        </mxCell>
        <mxCell id="KkYkvKr56rB3np9htNHk-52" value="image" style="rounded=0;whiteSpace=wrap;html=1;" parent="1" vertex="1">
          <mxGeometry x="-50" y="414.84" width="90" height="60.3" as="geometry" />
        </mxCell>
        <mxCell id="KkYkvKr56rB3np9htNHk-53" value="" style="shape=cube;whiteSpace=wrap;html=1;boundedLbl=1;backgroundOutline=1;darkOpacity=0.05;darkOpacity2=0.1;direction=east;fillColor=#b1ddf0;strokeColor=#10739e;" parent="1" vertex="1">
          <mxGeometry x="90" y="350" width="30" height="190" as="geometry" />
        </mxCell>
        <mxCell id="KkYkvKr56rB3np9htNHk-54" value="" style="shape=cube;whiteSpace=wrap;html=1;boundedLbl=1;backgroundOutline=1;darkOpacity=0.05;darkOpacity2=0.1;direction=east;fillColor=#b1ddf0;strokeColor=#10739e;" parent="1" vertex="1">
          <mxGeometry x="144" y="364.99" width="40" height="160" as="geometry" />
        </mxCell>
        <mxCell id="KkYkvKr56rB3np9htNHk-55" value="CCASPP" style="rounded=0;whiteSpace=wrap;html=1;fillColor=#bac8d3;strokeColor=#23445d;" parent="1" vertex="1">
          <mxGeometry x="350" y="329.99" width="52" height="35" as="geometry" />
        </mxCell>
        <mxCell id="KkYkvKr56rB3np9htNHk-56" value="CCASPP" style="rounded=0;whiteSpace=wrap;html=1;fillColor=#bac8d3;strokeColor=#23445d;" parent="1" vertex="1">
          <mxGeometry x="275" y="329.99" width="52" height="35" as="geometry" />
        </mxCell>
        <mxCell id="KkYkvKr56rB3np9htNHk-57" value="CCASPP" style="rounded=0;whiteSpace=wrap;html=1;fillColor=#bac8d3;strokeColor=#23445d;" parent="1" vertex="1">
          <mxGeometry x="204" y="329.99" width="52" height="35" as="geometry" />
        </mxCell>
        <mxCell id="KkYkvKr56rB3np9htNHk-58" value="" style="shape=cube;whiteSpace=wrap;html=1;boundedLbl=1;backgroundOutline=1;darkOpacity=0.05;darkOpacity2=0.1;direction=east;fillColor=#FFE6CC;" parent="1" vertex="1">
          <mxGeometry x="668" y="470" width="30" height="100" as="geometry" />
        </mxCell>
        <mxCell id="KkYkvKr56rB3np9htNHk-60" value="" style="shape=cube;whiteSpace=wrap;html=1;boundedLbl=1;backgroundOutline=1;darkOpacity=0.05;darkOpacity2=0.1;direction=east;fillColor=#FFE6CC;" parent="1" vertex="1">
          <mxGeometry x="668" y="340" width="30" height="100" as="geometry" />
        </mxCell>
      </root>
    </mxGraphModel>
  </diagram>
</mxfile>
